<svg xmlns="http://www.w3.org/2000/svg" xmlns:xlink="http://www.w3.org/1999/xlink" version="1.1" x="0px" y="0px" viewBox="0 0 100 100" style="enable-background:new 0 0 100 100;" xml:space="preserve"><polygon style="" points="46.797,30.528 27.16,30.528   27.636,20.8 46.321,20.8 " fill="none" stroke="#000000" stroke-width="0.25" stroke-miterlimit="10"></polygon><rect x="27.635" y="17.703" style="" width="18.686" height="2.596" fill="none" stroke="#000000" stroke-width="0.25" stroke-miterlimit="10"></rect><polygon style="" points="27.173,69.472 46.81,69.472   46.334,79.2 27.649,79.2 " fill="none" stroke="#000000" stroke-width="0.25" stroke-miterlimit="10"></polygon><rect x="27.65" y="79.701" style="" width="18.686" height="2.596" fill="none" stroke="#000000" stroke-width="0.25" stroke-miterlimit="10"></rect><polygon style="" points="53.136,30.528 72.773,30.528   72.297,20.8 53.612,20.8 " fill="none" stroke="#000000" stroke-width="0.25" stroke-miterlimit="10"></polygon><rect x="53.613" y="17.703" style="" width="18.686" height="2.596" fill="none" stroke="#000000" stroke-width="0.25" stroke-miterlimit="10"></rect><polygon style="" points="72.76,69.472 53.123,69.472   53.599,79.2 72.284,79.2 " fill="none" stroke="#000000" stroke-width="0.25" stroke-miterlimit="10"></polygon><rect x="53.598" y="79.701" style="" width="18.686" height="2.596" fill="none" stroke="#000000" stroke-width="0.25" stroke-miterlimit="10"></rect><polygon style="" points="90.123,40.653 90.123,59.347   81.59,59.762 81.59,40.238 " fill="none" stroke="#000000" stroke-width="0.25" stroke-miterlimit="10"></polygon><rect x="90.625" y="40.657" style="" width="2.596" height="18.686" fill="none" stroke="#000000" stroke-width="0.25" stroke-miterlimit="10"></rect><polygon style="" points="9.877,59.347 9.877,40.653   18.41,40.238 18.41,59.762 " fill="none" stroke="#000000" stroke-width="0.25" stroke-miterlimit="10"></polygon><rect x="6.779" y="40.657" style="" width="2.596" height="18.686" fill="none" stroke="#000000" stroke-width="0.25" stroke-miterlimit="10"></rect><rect x="18.41" y="30.528" style="" width="63.179" height="38.945" fill="none" stroke="#000000" stroke-width="0.25" stroke-miterlimit="10"></rect></svg>