<svg xmlns="http://www.w3.org/2000/svg" xmlns:xlink="http://www.w3.org/1999/xlink" version="1.1" x="0px" y="0px" viewBox="-895 477 128 128" enable-background="new -895 477 128 128" xml:space="preserve"><path d="M-769,522h-15.8c-5.2-12.7-15.5-22.7-28.2-27.6V479c0-1.1-0.9-2-2-2h-33c-1.1,0-2,0.9-2,2v15.8  c-12.7,5.2-22.7,15.5-27.6,28.2H-893c-1.1,0-2,0.9-2,2v33c0,1.1,0.9,2,2,2h15.8c5.1,12.3,14.9,22.2,27.2,27.2V603c0,1.1,0.9,2,2,2  h33c1.1,0,2-0.9,2-2v-15.4c13.1-5.1,23.6-15.5,28.6-28.6h15.4c1.1,0,2-0.9,2-2v-33C-767,522.9-767.9,522-769,522z M-846,481h29v12  c-4.4-1.3-9.1-2-14-2c-5.2,0-10.3,0.8-15,2.3V481z M-891,556v-29h12c-1.3,4.4-2,9.1-2,14c0,5.2,0.8,10.3,2.3,15H-891z M-817,601h-29  v-12.3c4.7,1.5,9.8,2.3,15,2.3c4.9,0,9.6-0.7,14-2V601z M-814.7,584c-0.1,0-0.2,0-0.3,0c-0.6,0-1.1,0.2-1.5,0.6  c-4.6,1.5-9.5,2.4-14.5,2.4c-25.4,0-46-20.6-46-46s20.6-46,46-46s46,20.6,46,46C-785,560.7-797.4,577.5-814.7,584z M-771,555h-12  c1.3-4.4,2-9.1,2-14c0-5.2-0.8-10.3-2.3-15h12.3V555z"></path></svg>