<svg xmlns="http://www.w3.org/2000/svg" data-name="Layer 1" viewBox="0 0 100 100" x="0px" y="0px"><title>05_collections</title><path d="M58.55,13.75H33.62a1,1,0,0,0-1,1v62.5a9,9,0,0,0,9,9H66.55a1,1,0,0,0,1-1V22.75A9,9,0,0,0,58.55,13.75Zm7,70.5H41.62a7,7,0,0,1-7-7V15.75H58.55a7,7,0,0,1,7,7v61.5ZM21,15.91a6.26,6.26,0,1,0,6.26,6.26A6.27,6.27,0,0,0,21,15.91Zm0,10.52a4.26,4.26,0,1,1,4.26-4.26A4.27,4.27,0,0,1,21,26.43Zm0,8a6.26,6.26,0,1,0,6.26,6.26A6.27,6.27,0,0,0,21,34.46ZM21,45a4.26,4.26,0,1,1,4.26-4.26A4.27,4.27,0,0,1,21,45Zm0,8a6.26,6.26,0,1,0,6.26,6.26A6.27,6.27,0,0,0,21,53Zm0,10.52a4.26,4.26,0,1,1,4.26-4.26A4.26,4.26,0,0,1,21,63.54Zm0,8a6.26,6.26,0,1,0,6.26,6.26A6.27,6.27,0,0,0,21,71.57Zm0,10.52a4.26,4.26,0,1,1,4.26-4.26A4.26,4.26,0,0,1,21,82.09ZM79,28.43a6.26,6.26,0,1,0-6.26-6.26A6.27,6.27,0,0,0,79,28.43Zm0-10.52a4.26,4.26,0,1,1-4.26,4.26A4.26,4.26,0,0,1,79,17.91Zm0,16.55a6.26,6.26,0,1,0,6.26,6.26A6.27,6.27,0,0,0,79,34.46ZM79,45a4.26,4.26,0,1,1,4.26-4.26A4.27,4.27,0,0,1,79,45Zm0,8a6.26,6.26,0,1,0,6.26,6.26A6.27,6.27,0,0,0,79,53Zm0,10.52a4.26,4.26,0,1,1,4.26-4.26A4.26,4.26,0,0,1,79,63.54Zm0,8a6.26,6.26,0,1,0,6.26,6.26A6.27,6.27,0,0,0,79,71.57Zm0,10.52a4.26,4.26,0,1,1,4.26-4.26A4.26,4.26,0,0,1,79,82.09Z"></path></svg>